<?xml version="1.0" encoding="UTF-8" standalone="no"?>
<!-- Created with Inkscape (http://www.inkscape.org/) -->

<svg
   xmlns:dc="http://purl.org/dc/elements/1.1/"
   xmlns:cc="http://creativecommons.org/ns#"
   xmlns:rdf="http://www.w3.org/1999/02/22-rdf-syntax-ns#"
   xmlns:svg="http://www.w3.org/2000/svg"
   xmlns="http://www.w3.org/2000/svg"
   xmlns:sodipodi="http://sodipodi.sourceforge.net/DTD/sodipodi-0.dtd"
   xmlns:inkscape="http://www.inkscape.org/namespaces/inkscape"
   sodipodi:docname="body.svg"
   id="svg3749"
   version="1.1"
   viewBox="0 0 528 251"
   height="251mm"
   width="528mm"
   inkscape:version="0.92.4 (5da689c313, 2019-01-14)">
  <defs
     id="defs3743" />
  <sodipodi:namedview
     id="base"
     pagecolor="#ffffff"
     bordercolor="#666666"
     borderopacity="1.0"
     inkscape:pageopacity="0.0"
     inkscape:pageshadow="2"
     inkscape:zoom="0.7"
     inkscape:cx="1094.6472"
     inkscape:cy="494.08595"
     inkscape:document-units="mm"
     inkscape:current-layer="layer1"
     showgrid="false"
     inkscape:window-width="1920"
     inkscape:window-height="1051"
     inkscape:window-x="-9"
     inkscape:window-y="-9"
     inkscape:window-maximized="1" />
  <metadata
     id="metadata3746">
    <rdf:RDF>
      <cc:Work
         rdf:about="">
        <dc:format>image/svg+xml</dc:format>
        <dc:type
           rdf:resource="http://purl.org/dc/dcmitype/StillImage" />
      </cc:Work>
    </rdf:RDF>
  </metadata>
  <g
     inkscape:label="Taso 1"
     inkscape:groupmode="layer"
     id="layer1"
     transform="translate(-0.5,-0.5)">
    <path
       id="path3930"
       inkscape:label="part"
       style="fill:none;stroke:#000000;stroke-width:1"
       d="m 58,198 h 4.962619 v -3 h 5.17 v 3 h 4.877619 v -3 h 5.17 v 3 h 4.877619 v -3 h 5.17 v 3 h 4.877619 v -3 h 5.17 v 3 h 4.877624 v -3 h 5.17 v 3 h 4.87761 v -3 h 5.17 v 3 h 4.87762 v -3 h 5.17 v 3 h 4.87762 v -3 h 5.17 v 3 h 4.87762 v -3 h 5.17 v 3 h 4.87762 v -3 h 5.17 v 3 h 4.87762 v -3 h 5.17 v 3 h 4.87762 v -3 h 5.17 v 3 h 4.87762 v -3 h 5.17 v 3 h 4.87762 v -3 h 5.17 v 3 h 4.87762 v -3 h 5.17 v 3 h 4.87761 v -3 h 5.17 v 3 h 4.87762 v -3 h 5.17 v 3 h 4.87762 v -3 h 5.17 v 3 h 4.87762 v -3 h 5.17 v 3 h 4.87762 v -3 h 5.17 v 3 H 264"
       inkscape:connector-curvature="0" />
    <path
       id="path3932"
       inkscape:label="part"
       style="fill:none;stroke:#000000;stroke-width:1"
       d="m 264,198 v 2.25167 h -3 v 4.83 h 3 v 5.33666 h -3 v 4.83 h 3 v 5.33667 h -3 v 4.83 h 3 v 5.33667 h -3 v 4.83 h 3 v 5.33666 h -3 v 4.83 h 3 V 248"
       inkscape:connector-curvature="0" />
    <path
       id="path3934"
       inkscape:label="part"
       style="fill:none;stroke:#000000;stroke-width:1"
       d="m 264,248 h -4.96262 v 3 h -5.17 v -3 h -4.87762 v 3 h -5.17 v -3 h -4.87762 v 3 h -5.17 v -3 h -4.87762 v 3 h -5.17 v -3 h -4.87762 v 3 h -5.17 v -3 h -4.87761 v 3 h -5.17 v -3 h -4.87762 v 3 h -5.17 v -3 h -4.87762 v 3 h -5.17 v -3 h -4.87762 v 3 h -5.17 v -3 h -4.87762 v 3 h -5.17 v -3 h -4.87762 v 3 h -5.17 v -3 h -4.87762 v 3 h -5.17 v -3 h -4.87762 v 3 h -5.17 v -3 h -4.87762 v 3 h -5.17 v -3 h -4.87762 v 3 h -5.17 v -3 h -4.87761 v 3 h -5.17 v -3 h -4.877624 v 3 h -5.17 v -3 h -4.877619 v 3 h -5.17 v -3 h -4.877619 v 3 h -5.17 v -3 h -4.877619 v 3 h -5.17 v -3 H 58"
       inkscape:connector-curvature="0" />
    <path
       id="path3936"
       inkscape:label="part"
       style="fill:none;stroke:#000000;stroke-width:1"
       d="m 58,248 v -2.25167 h 3 v -4.83 h -3 v -5.33666 h 3 v -4.83 H 58 V 225.415 h 3 v -4.83 h -3 v -5.33667 h 3 v -4.83 h -3 v -5.33666 h 3 v -4.83 H 58 V 198"
       inkscape:connector-curvature="0" />
    <path
       id="path3966"
       inkscape:label="part"
       style="fill:none;stroke:#000000;stroke-width:1"
       d="m 4,61 h 2.0816667 v -3 h 5.1700003 v 3 h 4.996666 v -3 h 5.17 v 3 H 26.415 v -3 h 5.17 v 3 h 4.996667 v -3 h 5.17 v 3 h 4.996666 v -3 h 5.17 v 3 H 54"
       inkscape:connector-curvature="0" />
    <path
       id="path3968"
       inkscape:label="part"
       style="fill:none;stroke:#000000;stroke-width:1"
       d="m 54,61 v 1.986429 h 3 v 5.17 h -3 v 4.901428 h 3 v 5.17 h -3 v 4.901429 h 3 v 5.17 h -3 v 4.901428 h 3 v 5.17 h -3 v 4.901426 h 3 v 5.17 h -3 v 4.90143 h 3 v 5.17 h -3 v 4.90143 h 3 v 5.17 h -3 v 4.90143 h 3 v 5.17 h -3 v 4.90143 h 3 v 5.17 h -3 v 4.90143 h 3 v 5.17 h -3 v 4.90142 h 3 v 5.17 h -3 v 4.90143 h 3 v 5.17 h -3 v 4.90143 h 3 v 5.17 H 54 V 191"
       inkscape:connector-curvature="0" />
    <path
       id="path3970"
       inkscape:label="part"
       style="fill:none;stroke:#000000;stroke-width:1"
       d="m 54,191 h -2.081667 v 3 h -5.17 v -3 h -4.996666 v 3 h -5.17 v -3 H 31.585 v 3 h -5.17 v -3 h -4.996667 v 3 h -5.17 v -3 h -4.996666 v 3 H 6.0816667 v -3 H 4"
       inkscape:connector-curvature="0" />
    <path
       id="path3972"
       inkscape:label="part"
       style="fill:none;stroke:#000000;stroke-width:1"
       d="m 4,191 v -1.98643 H 1 v -5.17 h 3 v -4.90143 H 1 v -5.17 h 3 v -4.90143 H 1 v -5.17 h 3 v -4.90142 H 1 v -5.17 h 3 v -4.90143 H 1 v -5.17 h 3 v -4.90143 H 1 v -5.17 H 4 V 128.585 H 1 v -5.17 h 3 v -4.90143 H 1 v -5.17 h 3 v -4.90143 H 1 v -5.17 H 4 V 98.370714 H 1 v -5.17 H 4 V 88.299286 H 1 v -5.17 H 4 V 78.227857 H 1 v -5.17 H 4 V 68.156429 H 1 v -5.17 H 4 V 61"
       inkscape:connector-curvature="0" />
    <path
       id="path4010"
       inkscape:label="part"
       style="fill:none;stroke:#000000;stroke-width:1"
       d="m 58,58 h 5.132619 v 3 h 4.83 v -3 h 5.217619 v 3 h 4.83 v -3 h 5.217619 v 3 h 4.83 v -3 h 5.217619 v 3 h 4.83 v -3 h 5.217624 v 3 h 4.83 v -3 h 5.21761 v 3 h 4.83 v -3 h 5.21762 v 3 h 4.83 v -3 h 5.21762 v 3 h 4.83 v -3 h 5.21762 v 3 h 4.83 v -3 h 5.21762 v 3 h 4.83 v -3 h 5.21762 v 3 h 4.83 v -3 h 5.21762 v 3 h 4.83 v -3 h 5.21762 v 3 h 4.83 v -3 h 5.21762 v 3 h 4.83 v -3 h 5.21762 v 3 h 4.83 v -3 h 5.21761 v 3 h 4.83 v -3 h 5.21762 v 3 h 4.83 v -3 h 5.21762 v 3 h 4.83 v -3 h 5.21762 v 3 h 4.83 v -3 h 5.21762 v 3 h 4.83 V 58 H 264"
       inkscape:connector-curvature="0" />
    <path
       id="path4012"
       inkscape:label="part"
       style="fill:none;stroke:#000000;stroke-width:1"
       d="m 264,58 v 5.156429 h -3 v 4.83 h 3 v 5.241428 h -3 v 4.83 h 3 v 5.241429 h -3 v 4.83 h 3 v 5.241428 h -3 v 4.83 h 3 v 5.241426 h -3 v 4.83 h 3 v 5.24143 h -3 v 4.83 h 3 v 5.24143 h -3 v 4.83 h 3 v 5.24143 h -3 v 4.83 h 3 v 5.24143 h -3 v 4.83 h 3 v 5.24143 h -3 v 4.83 h 3 v 5.24142 h -3 v 4.83 h 3 v 5.24143 h -3 v 4.83 h 3 v 5.24143 h -3 v 4.83 h 3 V 194"
       inkscape:connector-curvature="0" />
    <path
       id="path4014"
       inkscape:label="part"
       style="fill:none;stroke:#000000;stroke-width:1"
       d="m 264,194 h -5.13262 v -3 h -4.83 v 3 h -5.21762 v -3 h -4.83 v 3 h -5.21762 v -3 h -4.83 v 3 h -5.21762 v -3 h -4.83 v 3 h -5.21762 v -3 h -4.83 v 3 h -5.21761 v -3 h -4.83 v 3 h -5.21762 v -3 h -4.83 v 3 h -5.21762 v -3 h -4.83 v 3 h -5.21762 v -3 h -4.83 v 3 h -5.21762 v -3 h -4.83 v 3 h -5.21762 v -3 h -4.83 v 3 h -5.21762 v -3 h -4.83 v 3 h -5.21762 v -3 h -4.83 v 3 h -5.21762 v -3 h -4.83 v 3 h -5.21762 v -3 h -4.83 v 3 h -5.21761 v -3 h -4.83 v 3 h -5.217624 v -3 h -4.83 v 3 h -5.217619 v -3 h -4.83 v 3 h -5.217619 v -3 h -4.83 v 3 h -5.217619 v -3 h -4.83 v 3 H 58"
       inkscape:connector-curvature="0" />
    <path
       id="path4016"
       inkscape:label="part"
       style="fill:none;stroke:#000000;stroke-width:1"
       d="m 58,194 v -5.15643 h 3 v -4.83 h -3 v -5.24143 h 3 v -4.83 h -3 v -5.24143 h 3 v -4.83 h -3 v -5.24142 h 3 v -4.83 h -3 v -5.24143 h 3 v -4.83 h -3 v -5.24143 h 3 v -4.83 H 58 V 128.415 h 3 v -4.83 h -3 v -5.24143 h 3 v -4.83 h -3 v -5.24143 h 3 v -4.83 h -3 v -5.241426 h 3 v -4.83 h -3 v -5.241428 h 3 v -4.83 h -3 v -5.241429 h 3 v -4.83 h -3 v -5.241428 h 3 v -4.83 H 58 V 58"
       inkscape:connector-curvature="0" />
    <path
       id="path4018"
       inkscape:label="part"
       style="fill:none;stroke:#000000;stroke-width:1"
       d="m 268,61 h 2.08167 v -3 h 5.17 v 3 h 4.99666 v -3 h 5.17 v 3 h 4.99667 v -3 h 5.17 v 3 h 4.99667 v -3 h 5.17 v 3 h 4.99666 v -3 h 5.17 v 3 H 318"
       inkscape:connector-curvature="0" />
    <path
       id="path4020"
       inkscape:label="part"
       style="fill:none;stroke:#000000;stroke-width:1"
       d="m 318,61 v 1.986429 h 3 v 5.17 h -3 v 4.901428 h 3 v 5.17 h -3 v 4.901429 h 3 v 5.17 h -3 v 4.901428 h 3 v 5.17 h -3 v 4.901426 h 3 v 5.17 h -3 v 4.90143 h 3 v 5.17 h -3 v 4.90143 h 3 v 5.17 h -3 v 4.90143 h 3 v 5.17 h -3 v 4.90143 h 3 v 5.17 h -3 v 4.90143 h 3 v 5.17 h -3 v 4.90142 h 3 v 5.17 h -3 v 4.90143 h 3 v 5.17 h -3 v 4.90143 h 3 v 5.17 h -3 V 191"
       inkscape:connector-curvature="0" />
    <path
       id="path4022"
       inkscape:label="part"
       style="fill:none;stroke:#000000;stroke-width:1"
       d="m 318,191 h -2.08167 v 3 h -5.17 v -3 h -4.99666 v 3 h -5.17 v -3 H 295.585 v 3 h -5.17 v -3 h -4.99667 v 3 h -5.17 v -3 h -4.99666 v 3 h -5.17 v -3 H 268"
       inkscape:connector-curvature="0" />
    <path
       id="path4024"
       inkscape:label="part"
       style="fill:none;stroke:#000000;stroke-width:1"
       d="m 268,191 v -1.98643 h -3 v -5.17 h 3 v -4.90143 h -3 v -5.17 h 3 v -4.90143 h -3 v -5.17 h 3 v -4.90142 h -3 v -5.17 h 3 v -4.90143 h -3 v -5.17 h 3 v -4.90143 h -3 v -5.17 h 3 V 128.585 h -3 v -5.17 h 3 v -4.90143 h -3 v -5.17 h 3 v -4.90143 h -3 v -5.17 h 3 v -4.901426 h -3 v -5.17 h 3 v -4.901428 h -3 v -5.17 h 3 v -4.901429 h -3 v -5.17 h 3 v -4.901428 h -3 v -5.17 h 3 V 61"
       inkscape:connector-curvature="0" />
    <path
       id="path4026"
       inkscape:label="part"
       style="fill:none;stroke:#000000;stroke-width:1"
       d="m 322,58 h 5.13262 v 3 h 4.83 v -3 h 5.21762 v 3 h 4.83 v -3 h 5.21762 v 3 h 4.83 v -3 h 5.21762 v 3 h 4.83 v -3 h 5.21762 v 3 h 4.83 v -3 h 5.21761 v 3 h 4.83 v -3 h 5.21762 v 3 h 4.83 v -3 h 5.21762 v 3 h 4.83 v -3 h 5.21762 v 3 h 4.83 v -3 h 5.21762 v 3 h 4.83 v -3 h 5.21762 v 3 h 4.83 v -3 h 5.21762 v 3 h 4.83 v -3 h 5.21762 v 3 h 4.83 v -3 h 5.21762 v 3 h 4.83 v -3 h 5.21762 v 3 h 4.83 v -3 h 5.21761 v 3 h 4.83 v -3 h 5.21762 v 3 h 4.83 v -3 h 5.21762 v 3 h 4.83 v -3 h 5.21762 v 3 h 4.83 v -3 h 5.21762 v 3 h 4.83 V 58 H 528"
       inkscape:connector-curvature="0" />
    <path
       id="path4028"
       inkscape:label="part"
       style="fill:none;stroke:#000000;stroke-width:1"
       d="m 528,58 v 5.156429 h -3 v 4.83 h 3 v 5.241428 h -3 v 4.83 h 3 v 5.241429 h -3 v 4.83 h 3 v 5.241428 h -3 v 4.83 h 3 v 5.241426 h -3 v 4.83 h 3 v 5.24143 h -3 v 4.83 h 3 v 5.24143 h -3 v 4.83 h 3 v 5.24143 h -3 v 4.83 h 3 v 5.24143 h -3 v 4.83 h 3 v 5.24143 h -3 v 4.83 h 3 v 5.24142 h -3 v 4.83 h 3 v 5.24143 h -3 v 4.83 h 3 v 5.24143 h -3 v 4.83 h 3 V 194"
       inkscape:connector-curvature="0" />
    <path
       id="path4030"
       inkscape:label="part"
       style="fill:none;stroke:#000000;stroke-width:1"
       d="m 528,194 h -5.13262 v -3 h -4.83 v 3 h -5.21762 v -3 h -4.83 v 3 h -5.21762 v -3 h -4.83 v 3 h -5.21762 v -3 h -4.83 v 3 h -5.21762 v -3 h -4.83 v 3 h -5.21761 v -3 h -4.83 v 3 h -5.21762 v -3 h -4.83 v 3 h -5.21762 v -3 h -4.83 v 3 h -5.21762 v -3 h -4.83 v 3 h -5.21762 v -3 h -4.83 v 3 h -5.21762 v -3 h -4.83 v 3 h -5.21762 v -3 h -4.83 v 3 h -5.21762 v -3 h -4.83 v 3 h -5.21762 v -3 h -4.83 v 3 h -5.21762 v -3 h -4.83 v 3 h -5.21761 v -3 h -4.83 v 3 h -5.21762 v -3 h -4.83 v 3 h -5.21762 v -3 h -4.83 v 3 h -5.21762 v -3 h -4.83 v 3 h -5.21762 v -3 h -4.83 v 3 H 322"
       inkscape:connector-curvature="0" />
    <path
       id="path4032"
       inkscape:label="part"
       style="fill:none;stroke:#000000;stroke-width:1"
       d="m 322,194 v -5.15643 h 3 v -4.83 h -3 v -5.24143 h 3 v -4.83 h -3 v -5.24143 h 3 v -4.83 h -3 v -5.24142 h 3 v -4.83 h -3 v -5.24143 h 3 v -4.83 h -3 v -5.24143 h 3 v -4.83 h -3 V 128.415 h 3 v -4.83 h -3 v -5.24143 h 3 v -4.83 h -3 v -5.24143 h 3 v -4.83 h -3 v -5.241426 h 3 v -4.83 h -3 v -5.241428 h 3 v -4.83 h -3 v -5.241429 h 3 v -4.83 h -3 v -5.241428 h 3 v -4.83 h -3 V 58"
       inkscape:connector-curvature="0" />
    <path
       id="path4034"
       inkscape:label="part"
       style="fill:none;stroke:#000000;stroke-width:1"
       d="m 58,4 h 4.962619 V 1 h 5.17 v 3 h 4.877619 V 1 h 5.17 v 3 h 4.877619 V 1 h 5.17 v 3 h 4.877619 V 1 h 5.17 V 4 H 103.1531 V 1 h 5.17 v 3 h 4.87761 V 1 h 5.17 v 3 h 4.87762 V 1 h 5.17 v 3 h 4.87762 V 1 h 5.17 v 3 h 4.87762 V 1 h 5.17 v 3 h 4.87762 V 1 h 5.17 v 3 h 4.87762 V 1 h 5.17 v 3 h 4.87762 V 1 h 5.17 v 3 h 4.87762 V 1 h 5.17 v 3 h 4.87762 V 1 h 5.17 v 3 h 4.87762 V 1 h 5.17 v 3 h 4.87761 V 1 h 5.17 v 3 h 4.87762 V 1 h 5.17 v 3 h 4.87762 V 1 h 5.17 v 3 h 4.87762 V 1 h 5.17 v 3 h 4.87762 V 1 h 5.17 V 4 H 264"
       inkscape:connector-curvature="0" />
    <path
       id="path4036"
       inkscape:label="part"
       style="fill:none;stroke:#000000;stroke-width:1"
       d="m 264,4 v 2.2516667 h -3 v 4.8300003 h 3 v 5.336666 h -3 v 4.83 h 3 V 26.585 h -3 v 4.83 h 3 v 5.336667 h -3 v 4.83 h 3 v 5.336666 h -3 v 4.83 h 3 V 54"
       inkscape:connector-curvature="0" />
    <path
       id="path4038"
       inkscape:label="part"
       style="fill:none;stroke:#000000;stroke-width:1"
       d="m 264,54 h -4.96262 v 3 h -5.17 v -3 h -4.87762 v 3 h -5.17 v -3 h -4.87762 v 3 h -5.17 v -3 h -4.87762 v 3 h -5.17 v -3 h -4.87762 v 3 h -5.17 v -3 h -4.87761 v 3 h -5.17 v -3 h -4.87762 v 3 h -5.17 v -3 h -4.87762 v 3 h -5.17 v -3 h -4.87762 v 3 h -5.17 v -3 h -4.87762 v 3 h -5.17 v -3 h -4.87762 v 3 h -5.17 v -3 h -4.87762 v 3 h -5.17 v -3 h -4.87762 v 3 h -5.17 v -3 h -4.87762 v 3 h -5.17 v -3 h -4.87762 v 3 h -5.17 v -3 h -4.87761 v 3 h -5.17 v -3 h -4.877624 v 3 h -5.17 v -3 h -4.877619 v 3 h -5.17 v -3 h -4.877619 v 3 h -5.17 v -3 h -4.877619 v 3 h -5.17 V 54 H 58"
       inkscape:connector-curvature="0" />
    <path
       id="path4040"
       inkscape:label="part"
       style="fill:none;stroke:#000000;stroke-width:1"
       d="m 58,54 v -2.251667 h 3 v -4.83 h -3 v -5.336666 h 3 v -4.83 H 58 V 31.415 h 3 v -4.83 h -3 v -5.336667 h 3 v -4.83 h -3 v -5.336666 h 3 V 6.2516667 H 58 V 4"
       inkscape:connector-curvature="0" />
    <circle
       id="path4118"
       cx="107.46725"
       cy="122.61012"
       r="13.985119"
       style="stroke-width:0.26458332" />
    <ellipse
       id="path4122"
       cx="86.11161"
       cy="30.572922"
       rx="2.8348215"
       ry="3.2127976"
       style="stroke-width:0.26458332" />
    <ellipse
       id="path4124"
       cx="227.09673"
       cy="32.273815"
       rx="3.2127976"
       ry="3.7797618"
       style="stroke-width:0.26458332" />
    <ellipse
       id="path4126"
       cx="82.14286"
       cy="228.44345"
       rx="3.4017856"
       ry="3.0238097"
       style="stroke-width:0.26458332" />
    <ellipse
       id="path4128"
       cx="216.5134"
       cy="227.30952"
       rx="3.2127976"
       ry="3.0238097"
       style="stroke-width:0.26458332" />
  </g>
  <g
     id="g4043"
     inkscape:groupmode="layer"
     inkscape:label="newlayer"
     transform="translate(-0.5,-0.5)" />
</svg>
